<svg width="15" height="15" viewBox="0 0 15 15" fill="none" xmlns="http://www.w3.org/2000/svg">
<path d="M12.4999 3.12512H10.6249L9.37489 1.87512H5.62489L4.37489 3.12512H2.49989C1.81239 3.12512 1.24989 3.68762 1.24989 4.37512V11.8751C1.24989 12.5689 1.81239 13.1251 2.49989 13.1251H12.4999C13.1936 13.1251 13.7499 12.5689 13.7499 11.8751V4.37512C13.7499 3.68762 13.1936 3.12512 12.4999 3.12512ZM3.12489 7.50012H4.43739C4.78114 5.80637 6.43114 4.71887 8.12489 5.06262C8.59989 5.15637 9.01864 5.36887 9.37489 5.62512L8.47489 6.53137C8.19364 6.35637 7.86239 6.25012 7.49989 6.25012C6.71239 6.25012 5.99989 6.75012 5.73739 7.50012H6.87489L4.99989 9.37512L3.12489 7.50012ZM10.5686 8.75012C10.2249 10.4439 8.57489 11.5314 6.87489 11.1876C6.40614 11.0876 5.98739 10.8814 5.62489 10.6251L6.52489 9.71887C6.81239 9.89387 7.14364 10.0001 7.49989 10.0001C8.29364 10.0001 9.00614 9.50012 9.26864 8.75012H8.12489L9.99989 6.87512L11.8749 8.75012H10.5686Z" fill="black"/>
</svg>
