<svg width="15" height="15" viewBox="0 0 15 15" fill="none" xmlns="http://www.w3.org/2000/svg">
<path d="M12.4999 3.12512H10.6249L9.37488 1.87512H5.62488L4.37488 3.12512H2.49988C1.81238 3.12512 1.24988 3.68762 1.24988 4.37512V11.8751C1.24988 12.5689 1.81238 13.1251 2.49988 13.1251H12.4999C13.1936 13.1251 13.7499 12.5689 13.7499 11.8751V4.37512C13.7499 3.68762 13.1936 3.12512 12.4999 3.12512ZM3.12488 7.50012H4.43738C4.78113 5.80637 6.43113 4.71887 8.12488 5.06262C8.59988 5.15637 9.01863 5.36887 9.37488 5.62512L8.47488 6.53137C8.19363 6.35637 7.86238 6.25012 7.49988 6.25012C6.71238 6.25012 5.99988 6.75012 5.73738 7.50012H6.87488L4.99988 9.37512L3.12488 7.50012ZM10.5686 8.75012C10.2249 10.4439 8.57488 11.5314 6.87488 11.1876C6.40613 11.0876 5.98738 10.8814 5.62488 10.6251L6.52488 9.71887C6.81238 9.89387 7.14363 10.0001 7.49988 10.0001C8.29363 10.0001 9.00613 9.50012 9.26863 8.75012H8.12488L9.99988 6.87512L11.8749 8.75012H10.5686Z" fill="white"/>
</svg>
