<svg width="191" height="40" viewBox="0 0 191 40" fill="none" xmlns="http://www.w3.org/2000/svg">
<rect width="40" height="40" rx="4" fill="#4DAA57"/>
<path d="M28.86 16.3701L21.93 10.8301C20.86 9.97009 19.13 9.97009 18.07 10.8201L11.14 16.3701C10.36 16.9901 9.86002 18.3001 10.03 19.2801L11.36 27.2401C11.6 28.6601 12.96 29.8101 14.4 29.8101H25.6C27.03 29.8101 28.4 28.6501 28.64 27.2401L29.97 19.2801C30.13 18.3001 29.63 16.9901 28.86 16.3701ZM20 23.5001C18.62 23.5001 17.5 22.3801 17.5 21.0001C17.5 19.6201 18.62 18.5001 20 18.5001C21.38 18.5001 22.5 19.6201 22.5 21.0001C22.5 22.3801 21.38 23.5001 20 23.5001Z" fill="white"/>
<path d="M62.1995 16.5597C62.0347 16.0426 61.8131 15.5795 61.5347 15.1705C61.262 14.7557 60.9353 14.4034 60.5546 14.1136C60.1739 13.8182 59.7393 13.5937 59.2506 13.4403C58.7677 13.2869 58.2364 13.2102 57.6569 13.2102C56.6739 13.2102 55.7876 13.4631 54.9978 13.9688C54.208 14.4744 53.583 15.2159 53.1228 16.1932C52.6682 17.1648 52.441 18.3551 52.441 19.7642C52.441 21.179 52.6711 22.375 53.1313 23.3523C53.5915 24.3295 54.2222 25.071 55.0234 25.5767C55.8245 26.0824 56.7364 26.3352 57.7591 26.3352C58.708 26.3352 59.5347 26.142 60.2393 25.7557C60.9495 25.3693 61.4978 24.8239 61.8841 24.1193C62.2762 23.4091 62.4722 22.5739 62.4722 21.6136L63.154 21.7415H58.1597V19.5682H65.0205V21.554C65.0205 23.0199 64.708 24.2926 64.083 25.3722C63.4637 26.446 62.6057 27.2756 61.5091 27.8608C60.4182 28.446 59.1682 28.7386 57.7591 28.7386C56.1796 28.7386 54.7932 28.375 53.6001 27.6477C52.4126 26.9205 51.4864 25.8892 50.8216 24.554C50.1569 23.2131 49.8245 21.6222 49.8245 19.7812C49.8245 18.3892 50.0177 17.1392 50.404 16.0312C50.7904 14.9233 51.333 13.983 52.0319 13.2102C52.7364 12.4318 53.5631 11.8381 54.512 11.429C55.4665 11.0142 56.5091 10.8068 57.6398 10.8068C58.583 10.8068 59.4609 10.946 60.2734 11.2244C61.0915 11.5028 61.8188 11.8977 62.4552 12.4091C63.0972 12.9205 63.6285 13.5284 64.0489 14.233C64.4694 14.9318 64.7535 15.7074 64.9012 16.5597H62.1995ZM75.5932 28.7642C74.3659 28.7642 73.2949 28.483 72.3801 27.9205C71.4654 27.358 70.7551 26.571 70.2495 25.5597C69.7438 24.5483 69.4909 23.3665 69.4909 22.0142C69.4909 20.6562 69.7438 19.4687 70.2495 18.4517C70.7551 17.4347 71.4654 16.6449 72.3801 16.0824C73.2949 15.5199 74.3659 15.2386 75.5932 15.2386C76.8205 15.2386 77.8915 15.5199 78.8063 16.0824C79.7211 16.6449 80.4313 17.4347 80.937 18.4517C81.4426 19.4687 81.6955 20.6562 81.6955 22.0142C81.6955 23.3665 81.4426 24.5483 80.937 25.5597C80.4313 26.571 79.7211 27.358 78.8063 27.9205C77.8915 28.483 76.8205 28.7642 75.5932 28.7642ZM75.6017 26.625C76.3972 26.625 77.0563 26.4148 77.579 25.9943C78.1017 25.5739 78.4881 25.0142 78.7381 24.3153C78.9938 23.6165 79.1216 22.8466 79.1216 22.0057C79.1216 21.1705 78.9938 20.4034 78.7381 19.7045C78.4881 19 78.1017 18.4347 77.579 18.0085C77.0563 17.5824 76.3972 17.3693 75.6017 17.3693C74.8006 17.3693 74.1358 17.5824 73.6074 18.0085C73.0847 18.4347 72.6955 19 72.4398 19.7045C72.1898 20.4034 72.0648 21.1705 72.0648 22.0057C72.0648 22.8466 72.1898 23.6165 72.4398 24.3153C72.6955 25.0142 73.0847 25.5739 73.6074 25.9943C74.1358 26.4148 74.8006 26.625 75.6017 26.625ZM90.2696 28.7898C89.4401 28.7898 88.6901 28.6364 88.0196 28.3295C87.3491 28.017 86.8179 27.5653 86.4259 26.9744C86.0395 26.3835 85.8463 25.6591 85.8463 24.8011C85.8463 24.0625 85.9884 23.4545 86.2724 22.9773C86.5565 22.5 86.9401 22.1222 87.423 21.8438C87.906 21.5653 88.4457 21.3551 89.0423 21.2131C89.6389 21.071 90.2469 20.9631 90.8662 20.8892C91.6503 20.7983 92.2866 20.7244 92.7753 20.6676C93.2639 20.6051 93.619 20.5057 93.8406 20.3693C94.0622 20.233 94.173 20.0114 94.173 19.7045V19.6449C94.173 18.9006 93.9628 18.3239 93.5423 17.9148C93.1276 17.5057 92.5082 17.3011 91.6844 17.3011C90.8264 17.3011 90.1503 17.4915 89.656 17.8722C89.1673 18.2472 88.8293 18.6648 88.6418 19.125L86.2469 18.5795C86.531 17.7841 86.9457 17.142 87.4912 16.6534C88.0423 16.1591 88.6759 15.8011 89.3918 15.5795C90.1077 15.3523 90.8605 15.2386 91.6503 15.2386C92.173 15.2386 92.727 15.3011 93.3122 15.4261C93.9031 15.5455 94.4543 15.767 94.9656 16.0909C95.4827 16.4148 95.906 16.8778 96.2355 17.4801C96.5651 18.0767 96.7298 18.8523 96.7298 19.8068V28.5H94.2412V26.7102H94.1389C93.9741 27.0398 93.727 27.3636 93.3974 27.6818C93.0679 28 92.6446 28.2642 92.1276 28.4744C91.6105 28.6847 90.9912 28.7898 90.2696 28.7898ZM90.8236 26.7443C91.5281 26.7443 92.1304 26.6051 92.6304 26.3267C93.1361 26.0483 93.5196 25.6847 93.781 25.2358C94.048 24.7812 94.1815 24.2955 94.1815 23.7784V22.0909C94.0906 22.1818 93.9145 22.267 93.6531 22.3466C93.3974 22.4205 93.1048 22.4858 92.7753 22.5426C92.4457 22.5937 92.1247 22.642 91.8122 22.6875C91.4997 22.7273 91.2384 22.7614 91.0281 22.7898C90.5338 22.8523 90.0821 22.9574 89.673 23.1051C89.2696 23.2528 88.9457 23.4659 88.7014 23.7443C88.4628 24.017 88.3435 24.3807 88.3435 24.8352C88.3435 25.4659 88.5764 25.9432 89.0423 26.267C89.5082 26.5852 90.102 26.7443 90.8236 26.7443ZM104.592 11.0455V28.5H102.044V11.0455H104.592ZM110.145 28.5V11.0455H120.969V13.3125H112.779V18.6307H120.193V20.8892H112.779V28.5H110.145ZM125.923 28.5V15.4091H128.471V28.5H125.923ZM127.21 13.3892C126.767 13.3892 126.386 13.2415 126.068 12.946C125.755 12.6449 125.599 12.2869 125.599 11.8722C125.599 11.4517 125.755 11.0937 126.068 10.7983C126.386 10.4972 126.767 10.3466 127.21 10.3466C127.653 10.3466 128.031 10.4972 128.344 10.7983C128.662 11.0937 128.821 11.4517 128.821 11.8722C128.821 12.2869 128.662 12.6449 128.344 12.946C128.031 13.2415 127.653 13.3892 127.21 13.3892ZM136.368 20.7273V28.5H133.82V15.4091H136.266V17.5398H136.428C136.729 16.8466 137.2 16.2898 137.842 15.8693C138.49 15.4489 139.305 15.2386 140.288 15.2386C141.18 15.2386 141.962 15.4261 142.632 15.8011C143.303 16.1705 143.822 16.7216 144.192 17.4545C144.561 18.1875 144.746 19.0937 144.746 20.1733V28.5H142.197V20.4801C142.197 19.5312 141.95 18.7898 141.456 18.2557C140.962 17.7159 140.283 17.446 139.419 17.446C138.828 17.446 138.303 17.5739 137.842 17.8295C137.388 18.0852 137.027 18.4602 136.76 18.9545C136.499 19.4432 136.368 20.0341 136.368 20.7273ZM154.984 28.7557C153.927 28.7557 152.984 28.4858 152.154 27.946C151.331 27.4006 150.683 26.625 150.211 25.6193C149.745 24.608 149.512 23.3949 149.512 21.9801C149.512 20.5653 149.748 19.3551 150.22 18.3494C150.697 17.3437 151.35 16.5739 152.18 16.0398C153.01 15.5057 153.95 15.2386 155.001 15.2386C155.813 15.2386 156.467 15.375 156.961 15.6477C157.461 15.9148 157.848 16.2273 158.12 16.5852C158.399 16.9432 158.615 17.2585 158.768 17.5312H158.921V11.0455H161.47V28.5H158.981V26.4631H158.768C158.615 26.7415 158.393 27.0597 158.103 27.4176C157.819 27.7756 157.427 28.0881 156.927 28.3551C156.427 28.6222 155.779 28.7557 154.984 28.7557ZM155.546 26.5824C156.279 26.5824 156.899 26.3892 157.404 26.0028C157.916 25.6108 158.302 25.0682 158.563 24.375C158.831 23.6818 158.964 22.875 158.964 21.9545C158.964 21.0455 158.833 20.25 158.572 19.5682C158.311 18.8864 157.927 18.3551 157.421 17.9744C156.916 17.5937 156.291 17.4034 155.546 17.4034C154.779 17.4034 154.14 17.6023 153.629 18C153.117 18.3977 152.731 18.9403 152.47 19.6278C152.214 20.3153 152.086 21.0909 152.086 21.9545C152.086 22.8295 152.217 23.6165 152.478 24.3153C152.74 25.0142 153.126 25.5682 153.637 25.9773C154.154 26.3807 154.791 26.5824 155.546 26.5824ZM172.669 28.7642C171.379 28.7642 170.268 28.4886 169.336 27.9375C168.41 27.3807 167.694 26.5994 167.189 25.5938C166.689 24.5824 166.439 23.3977 166.439 22.0398C166.439 20.6989 166.689 19.517 167.189 18.4943C167.694 17.4716 168.399 16.6733 169.302 16.0994C170.211 15.5256 171.274 15.2386 172.49 15.2386C173.229 15.2386 173.944 15.3608 174.638 15.6051C175.331 15.8494 175.953 16.233 176.504 16.7557C177.055 17.2784 177.49 17.9574 177.808 18.7926C178.126 19.6222 178.285 20.6307 178.285 21.8182V22.7216H167.879V20.8125H175.788C175.788 20.142 175.652 19.5483 175.379 19.0312C175.106 18.5085 174.723 18.0966 174.229 17.7955C173.74 17.4943 173.166 17.3438 172.507 17.3438C171.791 17.3438 171.166 17.5199 170.632 17.8722C170.104 18.2187 169.694 18.6733 169.405 19.2358C169.121 19.7926 168.979 20.3977 168.979 21.0511V22.5426C168.979 23.4176 169.132 24.1619 169.439 24.7756C169.751 25.3892 170.186 25.858 170.743 26.1818C171.3 26.5 171.95 26.6591 172.694 26.6591C173.177 26.6591 173.618 26.5909 174.015 26.4545C174.413 26.3125 174.757 26.1023 175.047 25.8239C175.336 25.5455 175.558 25.2017 175.711 24.7926L178.123 25.2273C177.93 25.9375 177.584 26.5597 177.084 27.0938C176.589 27.6222 175.967 28.0341 175.217 28.3295C174.473 28.6193 173.623 28.7642 172.669 28.7642ZM183.033 28.5V15.4091H185.496V17.4886H185.632C185.871 16.7841 186.291 16.2301 186.894 15.8267C187.502 15.4176 188.189 15.2131 188.956 15.2131C189.115 15.2131 189.303 15.2187 189.519 15.2301C189.74 15.2415 189.913 15.2557 190.038 15.2727V17.7102C189.936 17.6818 189.754 17.6506 189.493 17.6165C189.232 17.5767 188.97 17.5568 188.709 17.5568C188.107 17.5568 187.57 17.6847 187.098 17.9403C186.632 18.1903 186.263 18.5398 185.99 18.9886C185.717 19.4318 185.581 19.9375 185.581 20.5057V28.5H183.033Z" fill="#4DAA57"/>
</svg>
