<svg width="200" height="267" viewBox="0 0 200 267" fill="none" xmlns="http://www.w3.org/2000/svg">
<g clip-path="url(#clip0_169_43)">
<path d="M0 25C0 11.1979 11.1979 0 25 0V25V229.896L92.7604 181.51C97.0833 178.385 102.969 178.385 107.292 181.51L175 229.896V25H25V0H175C188.802 0 200 11.1979 200 25V254.167C200 258.854 197.396 263.125 193.229 265.26C189.062 267.396 184.062 267.031 180.26 264.323L100 207.031L19.7396 264.323C15.9375 267.031 10.9375 267.396 6.77083 265.26C2.60417 263.125 0 258.854 0 254.167V25Z" fill="#909090"/>
</g>
<defs>
<clipPath id="clip0_169_43">
<rect width="200" height="266.667" fill="white"/>
</clipPath>
</defs>
</svg>
