<svg width="14" height="13" viewBox="0 0 14 13" fill="none" xmlns="http://www.w3.org/2000/svg">
<path d="M13.0563 2.82019L10.0157 4.69363L7.1001 0.804567C7.08837 0.788914 7.07315 0.776209 7.05566 0.767458C7.03817 0.758707 7.01887 0.75415 6.99931 0.75415C6.97975 0.75415 6.96046 0.758707 6.94297 0.767458C6.92548 0.776209 6.91026 0.788914 6.89853 0.804567L3.98447 4.69363L0.942283 2.82019C0.853221 2.76551 0.737596 2.83894 0.751658 2.94363L1.94541 12.0155C1.9626 12.139 2.06885 12.2343 2.19541 12.2343H11.8063C11.9313 12.2343 12.0392 12.1405 12.0548 12.0155L13.2485 2.94363C13.261 2.83894 13.147 2.76551 13.0563 2.82019ZM7.0001 9.97176C6.02978 9.97176 5.24072 9.1827 5.24072 8.21238C5.24072 7.24207 6.02978 6.45301 7.0001 6.45301C7.97041 6.45301 8.75947 7.24207 8.75947 8.21238C8.75947 9.1827 7.97041 9.97176 7.0001 9.97176ZM7.0001 7.4577C6.58447 7.4577 6.24697 7.7952 6.24697 8.21238C6.24697 8.62801 6.58447 8.96707 7.0001 8.96707C7.41572 8.96707 7.75322 8.62957 7.75322 8.21238C7.75322 7.79676 7.41572 7.4577 7.0001 7.4577Z" fill="#FCAA47"/>
</svg>
