<svg width="40" height="40" viewBox="0 0 40 40" fill="none" xmlns="http://www.w3.org/2000/svg">
<rect width="40" height="40" rx="4" fill="#4DAA57"/>
<path d="M28.86 16.3701L21.93 10.8301C20.86 9.97009 19.13 9.97009 18.07 10.8201L11.14 16.3701C10.36 16.9901 9.86002 18.3001 10.03 19.2801L11.36 27.2401C11.6 28.6601 12.96 29.8101 14.4 29.8101H25.6C27.03 29.8101 28.4 28.6501 28.64 27.2401L29.97 19.2801C30.13 18.3001 29.63 16.9901 28.86 16.3701ZM20 23.5001C18.62 23.5001 17.5 22.3801 17.5 21.0001C17.5 19.6201 18.62 18.5001 20 18.5001C21.38 18.5001 22.5 19.6201 22.5 21.0001C22.5 22.3801 21.38 23.5001 20 23.5001Z" fill="white"/>
</svg>
