<svg width="111" height="130" viewBox="0 0 111 130" fill="none" xmlns="http://www.w3.org/2000/svg">
<path d="M50.3271 39.9523C50.9564 84.9164 72.9152 97.6442 79.7089 100.482C79.9551 100.59 80.2013 100.645 80.4384 100.672H80.5479C80.6299 100.672 80.712 100.672 80.7941 100.645C80.9856 100.618 81.1771 100.563 81.3686 100.482C88.1623 97.6442 110.158 84.9164 110.75 39.9523C100.072 40.7863 90.1776 37.1964 80.5479 29.0376C70.9272 37.1964 61.0056 40.7591 50.3271 39.9523ZM99.8257 52.816C102.434 55.3815 102.434 59.5969 99.8257 62.1624L82.9462 78.9424C81.6422 80.2387 79.9551 80.8914 78.2407 80.8914C76.5263 80.8914 74.812 80.2387 73.5353 78.9424L63.3675 68.8345C60.7594 66.269 60.7594 62.0536 63.3675 59.4881C65.8661 56.977 70.2433 56.977 72.7693 59.4881L78.2316 64.9183L90.4147 52.816C93.0228 50.2233 97.2449 50.2233 99.8257 52.816Z" fill="#419F7D"/>
<path d="M9.7103 129.5H69.8052C74.8846 129.5 79.0155 125.393 79.0155 120.344V103.972C78.7693 103.89 78.5504 103.809 78.3316 103.727C70.9086 100.618 46.7703 86.7297 46.7703 37.9852C46.7703 37.4957 46.9892 37.0153 47.3722 36.6889C47.7552 36.3353 48.2659 36.1994 48.7583 36.2538C59.4641 37.6317 69.3584 34.1687 79.0155 25.6654V9.66507C79.0246 4.60661 74.8937 0.5 69.8143 0.5H9.7103C4.65831 0.5 0.5 4.60661 0.5 9.66507V120.344C0.5 125.393 4.65831 129.5 9.7103 129.5ZM29.5535 9.4747H49.9711C50.9469 9.4747 51.7403 10.2815 51.7403 11.2334C51.7403 12.2034 50.956 12.9921 49.9711 12.9921H29.5535C28.6051 12.9921 27.7844 12.2124 27.7844 11.2334C27.7935 10.2815 28.6051 9.4747 29.5535 9.4747ZM24.31 115.53H55.242C56.2177 115.53 57.0111 116.31 57.0111 117.289C57.0111 118.259 56.2269 119.048 55.242 119.048H24.31C23.3342 119.048 22.5409 118.268 22.5409 117.289C22.5409 116.319 23.3342 115.53 24.31 115.53Z" fill="url(#paint0_linear_597_2028)"/>
<path d="M76.9913 68.6444L70.2797 61.9723C69.6778 61.3831 68.8936 61.0567 68.0728 61.0567C67.2339 61.0567 66.4405 61.3831 65.8478 61.9723C65.2733 62.5435 64.9541 63.3231 64.9541 64.1571C64.9541 64.9911 65.2824 65.7526 65.8478 66.3418L76.0429 76.4497C77.2375 77.6645 79.2255 77.6645 80.4475 76.4497L97.3452 59.6788C98.5398 58.464 98.5398 56.4878 97.3178 55.273C96.1232 54.0855 94.1352 54.0855 92.9133 55.3002L79.49 68.6444C78.7878 69.3243 77.6661 69.3243 76.9913 68.6444Z" fill="#001E1F"/>
<defs>
<linearGradient id="paint0_linear_597_2028" x1="74.7503" y1="-3.79042e-07" x2="6.83242" y2="131.316" gradientUnits="userSpaceOnUse">
<stop stop-color="#CBEFE2"/>
<stop offset="0.996572" stop-color="#C0F2E0"/>
</linearGradient>
</defs>
</svg>
