<svg width="150" height="150" viewBox="0 0 150 150" fill="none" xmlns="http://www.w3.org/2000/svg">
<g opacity="0.8">
<g clip-path="url(#clip0_200_6584)">
<path d="M69.3271 49.9525C69.9564 94.9167 91.9152 107.644 98.7089 110.482C98.9551 110.591 99.2013 110.645 99.4384 110.672H99.5479C99.6299 110.672 99.712 110.672 99.7941 110.645C99.9856 110.618 100.177 110.563 100.369 110.482C107.162 107.644 129.158 94.9167 129.75 49.9525C119.072 50.7865 109.178 47.1967 99.5479 39.0378C89.9272 47.1967 80.0056 50.7593 69.3271 49.9525ZM118.826 62.8163C121.434 65.3818 121.434 69.5972 118.826 72.1626L101.946 88.9426C100.642 90.239 98.9551 90.8917 97.2407 90.8917C95.5263 90.8917 93.812 90.239 92.5353 88.9426L82.3675 78.8347C79.7594 76.2692 79.7594 72.0539 82.3675 69.4884C84.8661 66.9773 89.2433 66.9773 91.7693 69.4884L97.2316 74.9185L109.415 62.8163C112.023 60.2236 116.245 60.2236 118.826 62.8163Z" fill="#4DAA57"/>
<path d="M28.7103 139.5H88.8052C93.8846 139.5 98.0155 135.393 98.0155 130.344V113.972C97.7693 113.89 97.5504 113.809 97.3316 113.727C89.9086 110.618 65.7703 96.7297 65.7703 47.9852C65.7703 47.4957 65.9892 47.0153 66.3722 46.6889C66.7552 46.3353 67.2659 46.1994 67.7583 46.2538C78.4641 47.6317 88.3584 44.1687 98.0155 35.6654V19.6651C98.0246 14.6066 93.8937 10.5 88.8143 10.5H28.7103C23.6583 10.5 19.5 14.6066 19.5 19.6651V130.344C19.5 135.393 23.6583 139.5 28.7103 139.5ZM48.5535 19.4747H68.9711C69.9469 19.4747 70.7403 20.2815 70.7403 21.2334C70.7403 22.2034 69.956 22.9921 68.9711 22.9921H48.5535C47.6051 22.9921 46.7844 22.2124 46.7844 21.2334C46.7935 20.2815 47.6051 19.4747 48.5535 19.4747ZM43.31 125.53H74.242C75.2177 125.53 76.0111 126.31 76.0111 127.289C76.0111 128.259 75.2269 129.048 74.242 129.048H43.31C42.3342 129.048 41.5409 128.268 41.5409 127.289C41.5409 126.319 42.3342 125.53 43.31 125.53Z" fill="url(#paint0_linear_200_6584)"/>
<path d="M95.9913 78.6442L89.2797 71.9721C88.6778 71.3828 87.8936 71.0565 87.0728 71.0565C86.2339 71.0565 85.4405 71.3828 84.8478 71.9721C84.2733 72.5432 83.9541 73.3228 83.9541 74.1568C83.9541 74.9909 84.2824 75.7523 84.8478 76.3416L95.0429 86.4495C96.2375 87.6642 98.2255 87.6642 99.4475 86.4495L116.345 69.6786C117.54 68.4638 117.54 66.4876 116.318 65.2728C115.123 64.0852 113.135 64.0852 111.913 65.3L98.49 78.6442C97.7878 79.3241 96.6661 79.3241 95.9913 78.6442Z" fill="#001E1F"/>
</g>
</g>
<defs>
<linearGradient id="paint0_linear_200_6584" x1="93.7503" y1="10" x2="25.8324" y2="141.316" gradientUnits="userSpaceOnUse">
<stop stop-color="#4DAA57"/>
<stop offset="0.996572" stop-color="#4DAA57"/>
</linearGradient>
<clipPath id="clip0_200_6584">
<rect width="110.25" height="129" fill="white" transform="translate(19.5 10.5)"/>
</clipPath>
</defs>
</svg>
